<svg width="95" height="95" viewBox="0 0 95 95" fill="none" xmlns="http://www.w3.org/2000/svg">
<path d="M17.6661 59.2915C17.6661 62.4314 23.7877 72.2873 26.7037 77.2679C26.8015 77.435 26.9803 77.5276 27.1732 77.5109C32.4764 77.0526 43.6604 76.2178 49.1931 76.1904C56.1384 76.2248 62.0418 76.7555 68.574 77.4686C68.7705 77.4901 68.9594 77.3976 69.0593 77.2271C71.9768 72.2456 78.0929 62.43 78.0929 59.2915C78.0929 56.2233 77.1895 38.6318 64.0059 18.5689C63.8204 18.2867 63.4147 18.2636 63.2256 18.5434C59.3134 24.3299 53.1343 45.8414 49.3143 55.6513C49.2398 55.8427 49.0582 55.9605 48.8528 55.9605H43.3156C42.9752 55.9605 42.7317 55.6357 42.8383 55.3125C46.8087 43.2727 54.5313 20.965 58.5254 12.2594C58.6034 12.0895 58.5775 11.8988 58.4626 11.7512C55.5106 7.9592 52.1199 4.12869 48.2263 0.33635C48.0333 0.148376 47.7217 0.152249 47.5288 0.340233C20.271 26.8912 17.6661 55.3113 17.6661 59.2915Z" fill="white"/>
<path d="M15.6873 94.9998C28.0141 94.9965 35.1108 94.8958 47.6101 94.8958C60.1096 94.8958 67.7287 94.9966 80.0726 94.9998C80.404 94.9998 80.676 94.7307 80.6797 94.3993C80.7093 91.8033 80.8937 90.1322 80.131 87.6175C79.0392 83.918 77.7548 82.65 72.4782 81.7948C70.7927 81.5699 69.1692 81.3716 67.5842 81.1977C60.9227 80.4668 54.9395 80.1661 47.8798 80.1311C42.2362 80.1591 37.2804 80.3568 32.1162 80.8085C30.6089 80.9403 29.0837 81.0937 27.5186 81.2709C26.1422 81.4267 24.7348 81.6008 23.2814 81.7948C18.0048 82.65 16.7204 83.918 15.6285 87.6175C14.8659 90.1322 15.0503 91.8033 15.0798 94.3993C15.0836 94.7307 15.3559 94.9998 15.6873 94.9998Z" fill="white"/>
</svg>
