<svg width="95" height="95" viewBox="0 0 95 95" fill="none" xmlns="http://www.w3.org/2000/svg">
<path d="M16.109 93.2676C28.4976 93.2649 35.5989 93.1651 48.1319 93.1651C60.6651 93.1651 68.2916 93.2649 80.6945 93.2676C80.9706 93.2677 81.1978 93.0435 81.2006 92.7673C81.2266 90.1558 81.4245 88.499 80.6528 85.9907C79.561 82.3441 78.2766 81.0943 73 80.2512C72.4572 80.1798 71.9208 80.1112 71.3901 80.0451C63.3469 79.0446 56.6001 78.6514 48.4016 78.6113C40.2031 78.6514 33.4563 79.0446 25.4131 80.0451C24.8824 80.1112 24.346 80.1798 23.8032 80.2512C18.5266 81.0943 17.2422 82.3441 16.1504 85.9907C15.3786 88.499 15.5766 90.1558 15.6026 92.7673C15.6054 93.0435 15.8329 93.2677 16.109 93.2676Z" fill="white"/>
<path fill-rule="evenodd" clip-rule="evenodd" d="M53.656 0.500001C53.656 0.223858 53.4321 0 53.156 0H48.4015H43.6469C43.3708 0 43.1469 0.223858 43.1469 0.5V7.49436C43.1469 7.7705 42.9231 7.99436 42.6469 7.99436H35.7652C35.489 7.99436 35.2652 8.21822 35.2652 8.49436V19.4859C35.2652 19.762 35.489 19.9859 35.7652 19.9859H42.4728C42.8083 19.9859 43.0487 20.3099 42.9512 20.631L40.7285 27.9582C40.6273 28.2917 40.2152 28.4152 39.9338 28.2096C23.4908 16.1928 10.3984 27.3224 5.14334 39.0985C5.08442 39.2305 5.08721 39.3807 5.14897 39.5114L22.6311 76.5199C22.7234 76.7152 22.9297 76.8293 23.144 76.8028C31.1063 75.8193 40.3244 74.9162 48.4015 74.8768C56.4785 74.9162 65.6966 75.8193 73.6589 76.8028C73.8732 76.8293 74.0795 76.7152 74.1718 76.5199L91.6539 39.5114C91.7157 39.3807 91.7185 39.2305 91.6596 39.0985C86.4045 27.3224 73.3121 16.1928 56.8691 28.2096C56.5877 28.4152 56.1756 28.2917 56.0744 27.9582L53.8517 20.631C53.7543 20.3099 53.9946 19.9859 54.3301 19.9859H61.0377C61.3139 19.9859 61.5377 19.762 61.5377 19.4859V8.49436C61.5377 8.21822 61.3139 7.99436 61.0377 7.99436H54.156C53.8798 7.99436 53.656 7.7705 53.656 7.49436V0.500001Z" fill="white"/>
</svg>
