<svg width="95" height="95" viewBox="0 0 95 95" fill="none" xmlns="http://www.w3.org/2000/svg">
<path d="M15.5481 94.5812C27.9367 94.5786 35.0379 94.4809 47.571 94.4809C60.1042 94.4809 67.7307 94.5786 80.1336 94.5812C80.4097 94.5813 80.6369 94.3572 80.6398 94.0811C80.6662 91.5303 80.8626 89.9093 80.0919 87.457C79.0001 83.8869 77.7157 82.6633 72.4391 81.8379C63.6701 80.7089 56.5802 80.2742 47.8407 80.2324C39.1012 80.2742 32.0113 80.7089 23.2423 81.8379C17.9657 82.6633 16.6813 83.8869 15.5895 87.457C14.8188 89.9093 15.0151 91.5303 15.0416 94.0811C15.0445 94.3572 15.272 94.5813 15.5481 94.5812Z" fill="white"/>
<path d="M40.0636 47.677H30.624C30.3949 47.677 30.1951 47.5213 30.1391 47.2991L28.3553 40.2137C28.3014 39.9994 28.3915 39.7769 28.5816 39.6644C29.7542 38.9701 33.9423 36.5043 37.1605 34.7854C37.3295 34.6951 37.5348 34.7115 37.691 34.8224C44.6836 39.7855 53.6934 39.7914 60.1664 34.8401C60.3242 34.7194 60.5376 34.6983 60.7128 34.7919C63.9294 36.5105 68.1085 38.9711 69.2796 39.6645C69.4697 39.777 69.5599 39.9995 69.506 40.2137L67.7221 47.2992C67.6662 47.5214 67.4664 47.6771 67.2372 47.6771H60.4249L40.0636 47.677Z" fill="white"/>
<path d="M21.0048 78.2104C46.6915 75.9807 52.5214 75.8395 75.3217 78.1967C75.6777 78.2335 75.9637 77.884 75.8555 77.5429C70.0507 59.2522 61.8588 60.4983 60.4871 51.6756C60.4483 51.4264 60.2357 51.2316 59.9835 51.2316H40.1558C39.9161 51.2316 39.7101 51.4079 39.6561 51.6414C37.6063 60.5038 26.3689 59.2279 20.4794 77.5569C20.371 77.8942 20.6519 78.2411 21.0048 78.2104Z" fill="white"/>
<ellipse cx="49.1543" cy="18.3909" rx="17.0772" ry="17.0772" fill="white"/>
</svg>
