<svg width="95" height="95" viewBox="0 0 95 95" fill="none" xmlns="http://www.w3.org/2000/svg">
<path d="M15.502 94.5811C27.8905 94.5784 34.9918 94.4786 47.5248 94.4786C60.058 94.4786 67.6845 94.5784 80.0874 94.5811C80.3636 94.5811 80.5908 94.3569 80.5935 94.0808C80.6195 91.4693 80.8175 89.8125 80.0457 87.3042C79.08 84.0787 77.9636 82.7284 74.0671 81.8761C73.5583 81.7648 73.0023 81.662 72.3929 81.5647C63.6239 80.4115 56.534 79.9675 47.7945 79.9248C39.055 79.9675 31.9651 80.4115 23.1961 81.5647C22.5868 81.662 22.0307 81.7648 21.522 81.8761C17.6254 82.7284 16.509 84.0787 15.5433 87.3042C14.7716 89.8125 14.9695 91.4693 14.9955 94.0808C14.9983 94.3569 15.2258 94.5811 15.502 94.5811Z" fill="white"/>
<path d="M38.6277 2.52218L37.8903 15.3856C37.8763 15.6309 37.686 15.8297 37.4415 15.8544L31.7344 16.4318C31.4742 16.4581 31.2377 16.2795 31.1918 16.022L28.9853 3.63815C28.9454 3.41434 28.7549 3.24487 28.5281 3.22912C19.4053 2.59534 16.2223 5.83129 15.7422 7.62785C15.7292 7.67649 15.7261 7.72557 15.7298 7.77578L16.9671 24.5619C16.9757 24.6788 17.0252 24.789 17.1068 24.8732L25.4238 33.4514C25.544 33.5754 25.7209 33.6282 25.8897 33.5921C33.7833 31.9 40.1145 31.2126 47.9164 31.1106C55.7182 31.2126 62.0494 31.9 69.943 33.5921C70.1118 33.6283 70.2887 33.5754 70.4089 33.4514L78.7259 24.8732C78.8075 24.789 78.857 24.6788 78.8656 24.5619L80.1029 7.77578C80.1066 7.72557 80.1035 7.67649 80.0905 7.62785C79.6104 5.83129 76.4274 2.59534 67.3046 3.22912C67.0778 3.24487 66.8873 3.41434 66.8474 3.63815L64.6409 16.022C64.595 16.2795 64.3585 16.4581 64.0983 16.4318L58.3912 15.8544C58.1467 15.8297 57.9564 15.6309 57.9424 15.3856L57.2048 2.51804C57.1913 2.28221 57.0125 2.08758 56.7789 2.05276C50.1173 1.05988 46.0971 1.07382 39.0588 2.05602C38.823 2.08892 38.6413 2.28448 38.6277 2.52218Z" fill="white"/>
<path d="M25.4873 37.4062C33.4547 35.4528 39.8066 34.6972 47.7945 34.6235C55.7824 34.6972 62.1344 35.4528 70.1017 37.4062C70.3089 37.4569 70.4618 37.6343 70.4808 37.8467L74.0064 77.2477C74.0365 77.5841 73.7313 77.8534 73.3996 77.7902C73.0812 77.7295 72.746 77.6713 72.393 77.6149C63.624 76.4617 56.5341 76.0177 47.7946 75.975C39.0551 76.0177 31.9652 76.4617 23.1962 77.6149C22.8431 77.6713 22.508 77.7295 22.1895 77.7902C21.8578 77.8534 21.5527 77.5841 21.5828 77.2477L25.1082 37.8467C25.1272 37.6343 25.2802 37.4569 25.4873 37.4062Z" fill="white"/>
</svg>
