<svg width="95" height="98" viewBox="0 0 95 98" fill="none" xmlns="http://www.w3.org/2000/svg">
<path d="M15.2365 95.9157C27.685 95.9131 34.82 95.8127 47.413 95.8127C60.0063 95.8127 67.669 95.9131 80.1319 95.9157C80.4081 95.9158 80.6353 95.6916 80.638 95.4155C80.6641 92.7902 80.8633 91.1254 80.0877 88.6045C78.9907 84.9406 77.7002 83.6849 72.3987 82.8378C63.5882 81.6792 56.4648 81.2331 47.684 81.1902C38.9032 81.2331 31.7798 81.6792 22.9693 82.8378C17.6678 83.6849 16.3773 84.9406 15.2804 88.6045C14.5047 91.1254 14.704 92.7902 14.73 95.4155C14.7328 95.6916 14.9603 95.9158 15.2365 95.9157Z" stroke="#2B2B2B" stroke-width="3"/>
<path d="M26.5666 81.6521C23.707 76.7436 17.3278 64.7846 17.3278 61.5717C17.3278 57.5727 19.9451 29.0171 47.3332 2.34023C47.5262 2.15225 47.8378 2.14838 48.0308 2.33635C51.9439 6.14751 55.3514 9.99705 58.318 13.8079C58.4329 13.9554 58.4588 14.1461 58.3808 14.3161C54.3676 23.0626 46.607 45.4805 42.618 57.577C42.5114 57.9003 42.7549 58.225 43.0953 58.225H48.6635C48.8689 58.225 49.0505 58.1072 49.125 57.9158C52.9635 48.0588 59.1735 26.4389 63.1044 20.6285C63.2936 20.3488 63.6994 20.3718 63.8848 20.6539C77.1324 40.8128 78.0402 58.4889 78.0402 61.5717C78.0402 64.7846 71.661 76.7436 68.8014 81.6521" stroke="#2B2B2B" stroke-width="3"/>
</svg>
