<svg width="95" height="96" viewBox="0 0 95 96" fill="none" xmlns="http://www.w3.org/2000/svg">
<path d="M15.9449 95.2676C28.3334 95.2649 35.4347 95.1651 47.9677 95.1651C60.5009 95.1651 68.1274 95.2649 80.5303 95.2676C80.8065 95.2677 81.0337 95.0435 81.0364 94.7673C81.0624 92.1558 81.2604 90.499 80.4886 87.9907C79.3968 84.3441 78.1124 83.0943 72.8358 82.2512C71.8413 82.1204 70.8684 81.9988 69.9123 81.8858C62.4375 81.0025 55.9858 80.6492 48.2374 80.6113C40.4891 80.6492 34.0374 81.0025 26.5626 81.8858C25.6064 81.9988 24.6335 82.1204 23.639 82.2512C18.3624 83.0943 17.078 84.3441 15.9862 87.9907C15.2145 90.499 15.4124 92.1558 15.4384 94.7673C15.4412 95.0435 15.6687 95.2677 15.9449 95.2676Z" fill="#2B2B2B"/>
<path d="M62.6871 2C57.6086 2 53.4917 6.17573 53.4917 11.3268C53.4917 13.8253 54.7006 16.0944 56.2982 17.7688C56.4286 17.9054 56.4767 18.102 56.418 18.2815L48.7125 41.8505C48.5622 42.31 47.9122 42.31 47.762 41.8505L40.0564 18.2815C39.9977 18.102 40.0458 17.9054 40.1762 17.7688C41.7739 16.0944 42.9827 13.8253 42.9827 11.3268C42.9827 6.17573 38.8658 2 33.7873 2C28.7088 2 24.5919 6.17573 24.5919 11.3268C24.5919 14.9367 26.6139 17.6582 29.5718 19.1842C29.7391 19.2705 29.8489 19.4397 29.8529 19.6279L30.4742 49.2489C30.484 49.7168 29.9032 49.9405 29.5966 49.587L19.2455 37.6527C19.1043 37.4899 19.0843 37.2561 19.1832 37.0646C19.9519 35.5758 20.651 32.948 20.651 31.3126C20.651 26.1616 16.5341 21.9858 11.4556 21.9858C6.37717 21.9858 2.26025 26.1616 2.26025 31.3126C2.26025 36.1299 5.86097 40.7534 10.4815 41.2762C10.6745 41.2981 10.8432 41.4215 10.9126 41.6028L24.6897 77.6017C24.7715 77.8155 24.9879 77.9463 25.2153 77.92C32.5711 77.0698 40.2024 76.728 47.8173 76.6907C55.4349 76.728 63.069 77.0701 70.4272 77.9209C70.6509 77.9468 70.8645 77.8205 70.9491 77.6118L85.5585 41.5941C85.6302 41.4175 85.7966 41.2983 85.9861 41.277C90.6099 40.758 94.2142 36.1323 94.2142 31.3126C94.2142 26.1616 90.0973 21.9858 85.0188 21.9858C79.9403 21.9858 75.8234 26.1616 75.8234 31.3126C75.8234 32.948 76.5225 35.5758 77.2912 37.0646C77.3901 37.2561 77.3701 37.4899 77.2289 37.6527L66.8778 49.587C66.5712 49.9405 65.9904 49.7168 66.0002 49.2489L66.6216 19.6279C66.6255 19.4397 66.7353 19.2705 66.9026 19.1842C69.8605 17.6582 71.8825 14.9367 71.8825 11.3268C71.8825 6.17573 67.7656 2 62.6871 2Z" fill="#2B2B2B"/>
</svg>
