<svg width="95" height="98" viewBox="0 0 95 98" fill="none" xmlns="http://www.w3.org/2000/svg">
<path d="M15.8668 95.7082C28.2536 95.705 35.384 95.6052 47.9433 95.6052C60.5028 95.6052 68.1582 95.705 80.5621 95.7082C80.8935 95.7083 81.1655 95.4391 81.1694 95.1077C81.1993 92.54 81.3837 90.8856 80.618 88.3969C79.521 84.7331 78.2305 83.4774 72.929 82.6303C64.1185 81.4717 56.9951 81.0256 48.2143 80.9827C39.4335 81.0256 32.3101 81.4717 23.4996 82.6303C18.1981 83.4774 16.9076 84.7331 15.8106 88.3969C15.0449 90.8856 15.2293 92.54 15.2592 95.1077C15.2631 95.4391 15.5355 95.7083 15.8668 95.7082Z" stroke="#2B2B2B" stroke-width="3"/>
<path d="M32.1472 80.9828L23.9131 69.8748C23.8303 69.763 23.7979 69.6197 23.8245 69.4832C27.5332 50.4762 49.2121 41.3848 48.4995 30.355C48.4657 29.8315 47.8415 29.8465 47.7375 30.3606C45.6037 40.9102 41.802 44.5921 30.7871 45.6139C30.6844 45.6234 30.5842 45.6643 30.5056 45.731L25.3313 50.1186C25.3131 50.1341 25.2953 50.1516 25.2794 50.1694C21.1021 54.8564 16.1039 51.2728 14.0096 48.7724C13.9361 48.6847 13.8984 48.575 13.8984 48.4605V41.255C13.8984 41.1636 13.9235 41.0739 13.9709 40.9957L22.9941 26.1182C23.0132 26.0868 23.0287 26.0534 23.0405 26.0185L24.5057 21.67C24.5306 21.5961 24.5724 21.5291 24.6279 21.4742L34.3759 11.8306C34.4106 11.7963 34.4401 11.757 34.4635 11.7142L39.4758 2.50533C39.621 2.23843 39.9688 2.16176 40.2129 2.34282L45.6974 6.41211C45.7858 6.47773 45.8982 6.51217 46.0084 6.51067C82.2837 6.01748 84.6005 38.7861 81.5846 55.3326C81.5753 55.3835 81.5584 55.4306 81.534 55.4762L67.8843 80.9828" stroke="#2B2B2B" stroke-width="3"/>
</svg>
