<svg width="95" height="98" viewBox="0 0 95 98" fill="none" xmlns="http://www.w3.org/2000/svg">
<path d="M15.5484 95.6803C27.9969 95.6777 35.1319 95.5795 47.7249 95.5795C60.3182 95.5795 67.9809 95.6777 80.4438 95.6803C80.72 95.6803 80.9472 95.4562 80.95 95.1801C80.9765 92.6159 81.1741 90.9871 80.3996 88.5224C79.3026 84.9354 78.0121 83.706 72.7106 82.8767C63.9001 81.7424 56.7767 81.3057 47.9959 81.2637C39.2151 81.3057 32.0917 81.7424 23.2812 82.8767C17.9797 83.706 16.6892 84.9354 15.5922 88.5224C14.8177 90.9871 15.0153 92.6159 15.0418 95.1801C15.0447 95.4562 15.2722 95.6803 15.5484 95.6803Z" stroke="#2B2B2B" stroke-width="3"/>
<path d="M40.0767 48.4984H30.5906C30.3615 48.4984 30.1617 48.3427 30.1058 48.1205L28.3126 40.9981C28.2587 40.7838 28.3468 40.5626 28.5369 40.45C30.1342 39.5043 37.3656 35.2483 40.0969 34.0859M40.0767 48.4984C40.7366 62.2598 26.8783 60.9492 20.2792 82.5742M40.0767 48.4984L59.8742 48.4985M40.0969 34.0859C26.2425 25.5694 29.17 2.65529 48.2846 1.99999C67.3992 2.65529 71.0687 25.5694 57.2144 34.086M40.0969 34.0859C46.016 37.7244 51.4856 37.6075 57.2144 34.086M59.8742 48.4985H66.7206C66.9498 48.4985 67.1496 48.3428 67.2055 48.1206L68.9986 40.9982C69.0526 40.7839 68.9645 40.5627 68.7744 40.4501C67.1771 39.5043 59.9457 35.2483 57.2144 34.086M59.8742 48.4985C59.2143 62.2599 69.1131 60.9493 75.7123 82.5743" stroke="#2B2B2B" stroke-width="3"/>
</svg>
