<svg width="95" height="98" viewBox="0 0 95 98" fill="none" xmlns="http://www.w3.org/2000/svg">
<path d="M15.0581 95.7082C27.5067 95.7056 34.6416 95.6052 47.2347 95.6052C59.828 95.6052 67.4907 95.7056 79.9536 95.7082C80.2297 95.7083 80.4569 95.4841 80.4597 95.2079C80.4857 92.5827 80.6849 90.9178 79.9093 88.3969C78.8123 84.7331 77.5219 83.4774 72.2203 82.6303C63.4099 81.4717 56.2865 81.0256 47.5057 80.9827C38.7249 81.0256 31.6015 81.4717 22.791 82.6303C17.4894 83.4774 16.199 84.7331 15.102 88.3969C14.3264 90.9178 14.5256 92.5827 14.5517 95.2079C14.5544 95.4841 14.782 95.7083 15.0581 95.7082Z" stroke="#2B2B2B" stroke-width="3"/>
<path d="M48.417 31.9294C40.2114 31.9953 33.6921 32.6742 25.4963 34.4312C25.3275 34.4674 25.1505 34.4145 25.0303 34.2905L16.6725 25.6702C16.5909 25.586 16.5415 25.4759 16.5329 25.3589L15.2896 8.49224C15.2859 8.44203 15.289 8.39296 15.302 8.34431C15.7841 6.53921 18.9824 3.28721 28.1502 3.92458C28.377 3.94034 28.5676 4.10981 28.6075 4.33362L30.8252 16.78C30.871 17.0374 31.1075 17.216 31.3677 17.1897L37.1059 16.6092C37.3504 16.5845 37.5407 16.3858 37.5548 16.1404L38.2958 3.21223C38.3095 2.97454 38.4912 2.77898 38.727 2.74607C45.8004 1.75888 49.8398 1.74487 56.5346 2.74281C56.7683 2.77764 56.9471 2.97227 56.9606 3.2081L57.7019 16.1404C57.7159 16.3858 57.9062 16.5845 58.1507 16.6092L63.8889 17.1897C64.1491 17.216 64.3856 17.0374 64.4315 16.78L66.6492 4.33362C66.6891 4.10981 66.8796 3.94034 67.1064 3.92458C76.2743 3.28721 79.4726 6.53921 79.9546 8.34431C79.9676 8.39296 79.9708 8.44203 79.9671 8.49224L78.7238 25.3589C78.7152 25.4759 78.6657 25.586 78.5841 25.6702L70.2263 34.2905C70.1061 34.4145 69.9292 34.4674 69.7603 34.4312C61.5646 32.6742 55.0452 31.9953 46.8397 31.9294" stroke="#2B2B2B" stroke-width="3"/>
<path d="M21.1094 82.9905L24.7175 34.6937C24.7336 34.4783 24.8874 34.2972 25.0972 34.2458C33.1005 32.2839 39.4817 31.5249 47.5061 31.4509C55.5305 31.5249 61.9117 32.2839 69.915 34.2458C70.1248 34.2972 70.2786 34.4783 70.2947 34.6937L73.9029 82.9905" stroke="#2B2B2B" stroke-width="3"/>
</svg>
