<svg width="95" height="99" viewBox="0 0 95 99" fill="none" xmlns="http://www.w3.org/2000/svg">
<path d="M15.2388 96.9998C27.8347 96.9971 35.0522 96.8956 47.7926 96.8956C60.5332 96.8956 68.2848 96.9971 80.8951 96.9998C81.1712 96.9999 81.3984 96.7756 81.4011 96.4995C81.4272 93.8406 81.6296 92.1559 80.8445 89.6041C79.7348 85.898 78.4295 84.6277 73.0667 83.7709C64.1546 82.5989 56.9489 82.1477 48.0667 82.1042C39.1846 82.1477 31.9789 82.5989 23.0668 83.7709C17.704 84.6277 16.3986 85.898 15.289 89.6041C14.5039 92.1559 14.7063 93.8406 14.7324 96.4995C14.7351 96.7756 14.9627 96.9999 15.2388 96.9998Z" stroke="white" stroke-width="3"/>
<path d="M26.7058 82.5717C23.8131 77.6065 17.3603 65.5094 17.3603 62.2595C17.3603 58.2141 20.0081 29.3262 47.7162 2.34023C47.9092 2.15226 48.2207 2.14839 48.4138 2.33635C52.3747 6.19371 55.8236 10.0899 58.8259 13.947C58.9408 14.0945 58.9667 14.2852 58.8887 14.4551C54.8288 23.3023 46.9748 45.9904 42.94 58.2262C42.8334 58.5495 43.0769 58.8741 43.4173 58.8741H49.0618C49.2671 58.8741 49.4487 58.7563 49.5232 58.565C53.4073 48.5924 59.693 26.7065 63.6695 20.8374C63.8589 20.5578 64.265 20.5805 64.4505 20.8627C77.8552 41.257 78.7737 59.1407 78.7737 62.2595C78.7737 65.5094 72.3208 77.6065 69.4281 82.5717" stroke="white" stroke-width="3"/>
</svg>
