<svg width="95" height="99" viewBox="0 0 95 99" fill="none" xmlns="http://www.w3.org/2000/svg">
<path d="M14.8943 96.9998C27.4283 96.9966 34.6414 96.8956 47.348 96.8956C60.0549 96.8956 67.7991 96.9966 80.3503 96.9998C80.6817 96.9999 80.9537 96.7307 80.9576 96.3993C80.9875 93.798 81.1751 92.1238 80.3999 89.6041C79.2902 85.898 77.9849 84.6277 72.6221 83.7709C63.7099 82.5989 56.5043 82.1477 47.6221 82.1042C38.7399 82.1477 31.5343 82.5989 22.6221 83.7709C17.2593 84.6277 15.954 85.898 14.8443 89.6041C14.0691 92.1238 14.2567 93.798 14.2867 96.3993C14.2905 96.7307 14.5629 96.9999 14.8943 96.9998Z" stroke="white" stroke-width="3"/>
<path d="M31.3698 81.8946L23.0392 70.6563C22.9563 70.5446 22.924 70.4013 22.9506 70.2647C26.7033 51.0231 48.6627 41.827 47.9093 30.6587C47.874 30.1354 47.2485 30.1508 47.1447 30.6649C44.9871 41.3546 41.1436 45.0834 29.9921 46.1176C29.8895 46.1271 29.7893 46.168 29.7107 46.2347L24.4749 50.6744C24.4567 50.6899 24.439 50.7074 24.4231 50.7252C20.1965 55.4677 15.1392 51.8402 13.0215 49.3108C12.948 49.2231 12.9104 49.1134 12.9104 48.999V41.7066C12.9104 41.6152 12.9355 41.5255 12.9829 41.4473L22.1114 26.3961C22.1305 26.3647 22.146 26.3312 22.1578 26.2964L23.6405 21.8958C23.6654 21.8219 23.7073 21.7548 23.7627 21.7L33.6249 11.9435C33.6596 11.9091 33.6891 11.8699 33.7124 11.8271L38.7862 2.50533C38.9315 2.23843 39.2793 2.16176 39.5233 2.34282L45.078 6.46421C45.1664 6.52983 45.2789 6.56427 45.389 6.56277C82.0857 6.06264 84.4289 39.2116 81.3778 55.9492C81.3685 56 81.3517 56.0472 81.3273 56.0928L67.5195 81.8946" stroke="white" stroke-width="3"/>
</svg>
