<svg width="95" height="95" viewBox="0 0 95 95" fill="none" xmlns="http://www.w3.org/2000/svg">
<path d="M15.8858 93.2676C28.2743 93.2649 35.3756 93.1651 47.9086 93.1651C60.4418 93.1651 68.0683 93.2649 80.4712 93.2676C80.7474 93.2677 80.9746 93.0435 80.9773 92.7673C81.0033 90.1558 81.2013 88.499 80.4296 85.9907C79.3377 82.3441 78.0533 81.0943 72.7767 80.2512C71.7822 80.1204 70.8093 79.9988 69.8532 79.8858C62.3784 79.0025 55.9267 78.6492 48.1783 78.6113C40.43 78.6492 33.9783 79.0025 26.5035 79.8858C25.5473 79.9988 24.5744 80.1204 23.5799 80.2512C18.3033 81.0943 17.0189 82.3441 15.9271 85.9907C15.1554 88.499 15.3533 90.1558 15.3793 92.7673C15.3821 93.0435 15.6096 93.2677 15.8858 93.2676Z" fill="white"/>
<path d="M62.628 0C57.5495 0 53.4326 4.17573 53.4326 9.32675C53.4326 11.8253 54.6415 14.0944 56.2391 15.7688C56.3695 15.9054 56.4176 16.102 56.3589 16.2815L48.6534 39.8505C48.5031 40.31 47.8531 40.31 47.7029 39.8505L39.9973 16.2815C39.9386 16.102 39.9867 15.9054 40.1171 15.7688C41.7148 14.0944 42.9236 11.8253 42.9236 9.32675C42.9236 4.17573 38.8067 0 33.7282 0C28.6498 0 24.5328 4.17573 24.5328 9.32675C24.5328 12.9367 26.5548 15.6582 29.5127 17.1842C29.68 17.2705 29.7898 17.4397 29.7938 17.6279L30.4151 47.2489C30.425 47.7168 29.8441 47.9405 29.5375 47.587L19.1864 35.6527C19.0452 35.4899 19.0252 35.2561 19.1241 35.0646C19.8928 33.5758 20.592 30.948 20.592 29.3126C20.592 24.1616 16.475 19.9858 11.3966 19.9858C6.31809 19.9858 2.20117 24.1616 2.20117 29.3126C2.20117 34.1299 5.80189 38.7534 10.4224 39.2762C10.6154 39.2981 10.7841 39.4215 10.8535 39.6028L24.6306 75.6017C24.7124 75.8155 24.9288 75.9463 25.1562 75.92C32.512 75.0698 40.1433 74.728 47.7582 74.6907C55.3758 74.728 63.0099 75.0701 70.3681 75.9209C70.5918 75.9468 70.8054 75.8205 70.89 75.6118L85.4995 39.5941C85.5711 39.4175 85.7375 39.2983 85.927 39.277C90.5508 38.758 94.1551 34.1323 94.1551 29.3126C94.1551 24.1616 90.0382 19.9858 84.9597 19.9858C79.8812 19.9858 75.7643 24.1616 75.7643 29.3126C75.7643 30.948 76.4634 33.5758 77.2321 35.0646C77.331 35.2561 77.311 35.4899 77.1698 35.6527L66.8187 47.587C66.5121 47.9405 65.9313 47.7168 65.9411 47.2489L66.5625 17.6279C66.5664 17.4397 66.6762 17.2705 66.8435 17.1842C69.8014 15.6582 71.8234 12.9367 71.8234 9.32675C71.8234 4.17573 67.7065 0 62.628 0Z" fill="white"/>
</svg>
