<svg width="95" height="95" viewBox="0 0 95 95" fill="none" xmlns="http://www.w3.org/2000/svg">
<path d="M17.7256 59.2915C17.7256 62.4314 23.8473 72.2873 26.7632 77.2679C26.861 77.435 27.0399 77.5276 27.2327 77.5109C32.5359 77.0526 43.7199 76.2178 49.2526 76.1904C56.1979 76.2248 62.1013 76.7555 68.6336 77.4686C68.83 77.4901 69.0189 77.3976 69.1188 77.2271C72.0363 72.2456 78.1524 62.43 78.1524 59.2915C78.1524 56.2233 77.249 38.6318 64.0654 18.5689C63.88 18.2867 63.4743 18.2636 63.2851 18.5434C59.3729 24.3299 53.1938 45.8414 49.3738 55.6513C49.2993 55.8427 49.1177 55.9605 48.9123 55.9605H43.3751C43.0347 55.9605 42.7913 55.6357 42.8979 55.3125C46.8682 43.2727 54.5908 20.965 58.5849 12.2594C58.6629 12.0895 58.637 11.8988 58.5221 11.7512C55.5701 7.9592 52.1794 4.12869 48.2858 0.33635C48.0928 0.148376 47.7813 0.152249 47.5883 0.340233C20.3305 26.8912 17.7256 55.3113 17.7256 59.2915Z" fill="#2B2B2B"/>
<path d="M15.7464 94.9998C28.0731 94.9965 35.1699 94.8958 47.6691 94.8958C60.1686 94.8958 67.7878 94.9966 80.1317 94.9998C80.4631 94.9998 80.735 94.7307 80.7388 94.3993C80.7684 91.8033 80.9527 90.1322 80.1901 87.6175C79.0982 83.918 77.8139 82.65 72.5372 81.7948C70.8517 81.5699 69.2283 81.3716 67.6432 81.1977C60.9818 80.4668 54.9985 80.1661 47.9388 80.1311C42.2952 80.1591 37.3395 80.3568 32.1753 80.8085C30.6679 80.9403 29.1428 81.0937 27.5776 81.2709C26.2012 81.4267 24.7939 81.6008 23.3404 81.7948C18.0638 82.65 16.7794 83.918 15.6876 87.6175C14.9249 90.1322 15.1093 91.8033 15.1389 94.3993C15.1426 94.7307 15.415 94.9998 15.7464 94.9998Z" fill="#2B2B2B"/>
</svg>
