<svg width="95" height="98" viewBox="0 0 95 98" fill="none" xmlns="http://www.w3.org/2000/svg">
<path d="M15.6248 95.7082C28.0733 95.7056 35.2083 95.6052 47.8013 95.6052C60.3946 95.6052 68.0573 95.7056 80.5202 95.7082C80.7964 95.7083 81.0236 95.4841 81.0263 95.2079C81.0524 92.5827 81.2516 90.9178 80.476 88.3969C79.379 84.7331 78.0886 83.4774 72.787 82.6303C63.9765 81.4717 56.8531 81.0256 48.0723 80.9827C39.2915 81.0256 32.1681 81.4717 23.3577 82.6303C18.0561 83.4774 16.7657 84.7331 15.6687 88.3969C14.893 90.9178 15.0923 92.5827 15.1183 95.2079C15.1211 95.4841 15.3486 95.7083 15.6248 95.7082Z" stroke="#2B2B2B" stroke-width="3"/>
<path d="M71.1693 81.6521L91.5194 41.7023C91.5874 41.5688 91.5926 41.4128 91.5315 41.276C86.2491 29.4463 73.0958 18.2705 56.577 30.3449C56.2957 30.5505 55.8836 30.4271 55.7824 30.0936L53.5472 22.7255C53.4498 22.4044 53.6901 22.0804 54.0257 22.0804H60.7705C61.0467 22.0804 61.2705 21.8565 61.2705 21.5804V10.5321C61.2705 10.256 61.0467 10.0321 60.7705 10.0321H53.8515C53.5754 10.0321 53.3515 9.80829 53.3515 9.53215V2.5C53.3515 2.22386 53.1277 2 52.8515 2H48.0722H43.2928C43.0167 2 42.7928 2.22386 42.7928 2.5V9.53215C42.7928 9.80829 42.569 10.0321 42.2928 10.0321H35.3738C35.0977 10.0321 34.8738 10.256 34.8738 10.5321V21.5804C34.8738 21.8565 35.0977 22.0804 35.3738 22.0804H42.1187C42.4542 22.0804 42.6945 22.4044 42.5971 22.7255L40.3619 30.0936C40.2608 30.4271 39.8486 30.5505 39.5673 30.3449C23.0486 18.2705 9.89521 29.4463 4.61284 41.276C4.55176 41.4128 4.557 41.5688 4.62499 41.7023L24.975 81.6521" stroke="#2B2B2B" stroke-width="3"/>
</svg>
