<svg width="95" height="95" viewBox="0 0 95 95" fill="none" xmlns="http://www.w3.org/2000/svg">
<path d="M15.6742 94.5811C28.001 94.5778 35.0977 94.4771 47.597 94.4771C60.0965 94.4771 67.7156 94.5779 80.0595 94.5811C80.3909 94.5811 80.6629 94.312 80.6666 93.9806C80.6962 91.3846 80.8806 89.7135 80.1179 87.1988C79.0261 83.4993 77.7417 82.2313 72.4651 81.3761C70.7796 81.1512 69.1561 80.9529 67.5711 80.779C60.9096 80.0481 54.9264 79.7474 47.8667 79.7124C42.2231 79.7404 37.2673 79.9381 32.1032 80.3898C29.2703 80.6375 26.3746 80.9616 23.2683 81.3761C17.9917 82.2313 16.7073 83.4993 15.6155 87.1988C14.8528 89.7135 15.0372 91.3846 15.0667 93.9806C15.0705 94.312 15.3428 94.5811 15.6742 94.5811Z" fill="white"/>
<path d="M39.9089 1.66427L45.3602 5.76756C45.4492 5.83453 45.5628 5.86973 45.6741 5.8682C81.7642 5.37216 84.0803 38.436 81.0831 55.1482C81.0719 55.2106 81.0492 55.2679 81.0156 55.3216L67.6107 76.7808C67.509 76.9437 67.3225 77.0338 67.1316 77.0131C60.595 76.3069 54.6889 76.0151 47.7399 75.9806C42.1709 76.0082 37.2718 76.2011 32.1811 76.6402C32.05 76.6515 31.9196 76.6108 31.8183 76.5269L23.8258 69.8994C23.6612 69.763 23.6018 69.5354 23.6802 69.3365C30.6263 51.731 54.2867 44.1036 48.3954 29.2832C48.2172 28.835 47.5899 28.923 47.4999 29.3968C45.3961 40.4733 41.6728 44.3016 30.5239 45.3513C30.4203 45.3611 30.3193 45.4028 30.2404 45.4707L25.0914 49.9001C25.0733 49.9157 25.0557 49.9333 25.0399 49.9513C20.8811 54.6852 15.9048 51.0635 13.8213 48.5387C13.7492 48.4514 13.7124 48.3428 13.7124 48.2296V40.9472C13.7124 40.8569 13.7369 40.7682 13.7832 40.6907L22.7658 25.6656C22.7844 25.6344 22.7996 25.6012 22.8111 25.5667L24.2703 21.1733C24.2947 21.0997 24.3359 21.0329 24.3906 20.978L34.0939 11.2395C34.1282 11.2051 34.1573 11.1658 34.1803 11.123L39.1676 1.82736C39.3125 1.5573 39.664 1.47996 39.9089 1.66427Z" fill="white"/>
</svg>
