<svg width="250" height="253" viewBox="0 0 250 253" fill="none" xmlns="http://www.w3.org/2000/svg">
<path d="M40.4793 251.448C74.1353 251.445 93.1646 251.173 126.968 251.173C160.771 251.173 181.229 251.445 214.899 251.448C215.175 251.448 215.404 251.222 215.405 250.946C215.435 243.47 216.091 238.958 213.946 231.985C211.026 222.232 207.591 218.89 193.478 216.635C170.025 213.551 151.063 212.363 127.689 212.249C104.315 212.363 85.3526 213.551 61.8995 216.635C47.7869 218.89 44.3518 222.232 41.4317 231.985C39.2865 238.958 39.9427 243.47 39.9726 250.946C39.9737 251.222 40.2031 251.448 40.4793 251.448Z" stroke="white" stroke-width="3"/>
<path d="M189.172 214.031L243.522 107.335C243.59 107.202 243.595 107.046 243.535 106.909C229.477 75.0553 193.951 44.7483 149.356 78.1731C149.077 78.3821 148.661 78.2614 148.56 77.9279L141.938 56.0983C141.841 55.7771 142.081 55.4531 142.416 55.4531H162.322C162.598 55.4531 162.822 55.2293 162.822 54.9531V23.8812C162.822 23.6051 162.598 23.3812 162.322 23.3812H142.242C141.966 23.3812 141.742 23.1574 141.742 22.8812V2.5C141.742 2.22386 141.518 2 141.242 2H127.689H114.135C113.859 2 113.635 2.22386 113.635 2.5V22.8812C113.635 23.1574 113.412 23.3812 113.135 23.3812H93.0553C92.7792 23.3812 92.5553 23.6051 92.5553 23.8812V54.9531C92.5553 55.2293 92.7792 55.4531 93.0553 55.4531H112.961C113.297 55.4531 113.537 55.7771 113.44 56.0983L106.818 77.9279C106.716 78.2614 106.301 78.3821 106.022 78.1731C61.4268 44.7483 25.9006 75.0553 11.843 106.909C11.7825 107.046 11.7877 107.202 11.8557 107.335L66.2052 214.031" stroke="white" stroke-width="3"/>
</svg>
