<svg width="95" height="99" viewBox="0 0 95 99" fill="none" xmlns="http://www.w3.org/2000/svg">
<path d="M15.6939 96.7901C28.2897 96.7874 35.5073 96.6859 48.2477 96.6859C60.9883 96.6859 68.7399 96.7874 81.3501 96.7901C81.6262 96.7901 81.8535 96.5659 81.8562 96.2897C81.8823 93.6309 82.0847 91.9462 81.2995 89.3944C80.1899 85.6883 78.8845 84.418 73.5218 83.5612C64.6096 82.3892 57.404 81.9379 48.5218 81.8945C39.6396 81.9379 32.434 82.3892 23.5218 83.5612C18.159 84.418 16.8537 85.6883 15.744 89.3944C14.9589 91.9462 15.1613 93.6309 15.1874 96.2897C15.1901 96.5659 15.4177 96.7901 15.6939 96.7901Z" stroke="white" stroke-width="3"/>
<path d="M71.8855 82.5717L92.4718 42.1582C92.5398 42.0247 92.545 41.8687 92.4839 41.7319C87.1406 29.7631 73.8318 18.4545 57.1181 30.6771C56.8368 30.8828 56.4246 30.7594 56.3234 30.4259L54.0578 22.9573C53.9604 22.6362 54.2007 22.3122 54.5362 22.3122H61.3725C61.6486 22.3122 61.8725 22.0883 61.8725 21.8122V10.6249C61.8725 10.3487 61.6486 10.1249 61.3725 10.1249H54.3621C54.0859 10.1249 53.8621 9.90102 53.8621 9.62487V2.5C53.8621 2.22386 53.6382 2 53.3621 2H48.5218H43.6815C43.4053 2 43.1815 2.22386 43.1815 2.5V9.62487C43.1815 9.90102 42.9576 10.1249 42.6815 10.1249H35.671C35.3949 10.1249 35.171 10.3487 35.171 10.6249V21.8122C35.171 22.0883 35.3949 22.3122 35.671 22.3122H42.5073C42.8429 22.3122 43.0832 22.6362 42.9858 22.9573L40.7201 30.4259C40.619 30.7594 40.2067 30.8828 39.9255 30.6771C23.2117 18.4545 9.90295 29.7631 4.55961 41.7319C4.49854 41.8687 4.50378 42.0247 4.57177 42.1582L25.158 82.5717" stroke="white" stroke-width="3"/>
</svg>
