<svg width="250" height="250" viewBox="0 0 250 250" fill="none" xmlns="http://www.w3.org/2000/svg">
<path d="M41.572 245.441C74.6824 245.438 93.4056 245.171 126.663 245.171C159.92 245.171 180.049 245.438 213.174 245.441C213.45 245.441 213.679 245.215 213.68 244.939C213.71 237.588 214.354 233.149 212.244 226.291C209.371 216.695 205.991 213.406 192.105 211.187C190.677 210.999 189.265 210.819 187.869 210.645C166.702 208.012 148.948 206.977 127.373 206.872C105.798 206.977 88.0429 208.012 66.8767 210.645C65.48 210.819 64.0685 210.999 62.64 211.187C48.7542 213.406 45.3743 216.695 42.501 226.291C40.391 233.149 41.0355 237.588 41.0653 244.939C41.0664 245.215 41.2959 245.441 41.572 245.441Z" fill="white"/>
<path fill-rule="evenodd" clip-rule="evenodd" d="M141.2 0.5C141.2 0.223858 140.976 0 140.7 0H127.372H114.045C113.768 0 113.545 0.223858 113.545 0.5V20.5378C113.545 20.8139 113.321 21.0378 113.045 21.0378H93.3031C93.0269 21.0378 92.8031 21.2617 92.8031 21.5378V52.0945C92.8031 52.3706 93.0269 52.5945 93.3031 52.5945H112.87C113.206 52.5945 113.446 52.9185 113.349 53.2396L106.84 74.6972C106.738 75.0306 106.323 75.1514 106.044 74.9424C62.1673 42.0642 27.2145 71.887 13.3852 103.229C13.3268 103.361 13.3295 103.511 13.3913 103.642L59.8078 201.902C59.9 202.097 60.1058 202.212 60.3202 202.185C81.4062 199.569 105.919 197.149 127.372 197.044C148.826 197.149 173.338 199.569 194.424 202.185C194.639 202.212 194.844 202.097 194.937 201.902L241.353 103.642C241.415 103.511 241.418 103.361 241.359 103.229C227.53 71.887 192.577 42.0642 148.7 74.9424C148.422 75.1514 148.006 75.0306 147.905 74.6972L141.396 53.2396C141.298 52.9185 141.538 52.5945 141.874 52.5945H161.441C161.717 52.5945 161.941 52.3706 161.941 52.0945V21.5378C161.941 21.2617 161.717 21.0378 161.441 21.0378H141.7C141.424 21.0378 141.2 20.8139 141.2 20.5378V0.5Z" fill="white"/>
</svg>
