<svg width="95" height="99" viewBox="0 0 95 99" fill="none" xmlns="http://www.w3.org/2000/svg">
<path d="M14.5489 96.7901C27.1448 96.7875 34.3623 96.6881 47.1027 96.6881C59.8433 96.6881 67.5949 96.7875 80.2051 96.7901C80.4813 96.7901 80.7085 96.566 80.7113 96.2898C80.7379 93.6928 80.9387 92.0445 80.1546 89.5496C79.0449 85.9212 77.7396 84.6776 72.3768 83.8387C63.4647 82.6913 56.259 82.2495 47.3768 82.207C38.4946 82.2495 31.289 82.6913 22.3768 83.8387C17.0141 84.6776 15.7087 85.9212 14.5991 89.5496C13.815 92.0445 14.0158 93.6928 14.0424 96.2898C14.0452 96.566 14.2728 96.7901 14.5489 96.7901Z" stroke="white" stroke-width="3"/>
<path d="M39.3664 49.0636H29.7664C29.5372 49.0636 29.3374 48.9078 29.2815 48.6857L27.4655 41.4725C27.4115 41.2582 27.4995 41.0371 27.6896 40.9245C29.2976 39.9723 36.6218 35.6613 39.3868 34.4846M39.3664 49.0636C40.034 62.9838 26.0157 61.6581 19.3403 83.5327M39.3664 49.0636L59.3925 49.0637M39.3868 34.4846C25.3726 25.8698 28.3338 2.69118 47.6691 2.02831C67.0044 2.69118 70.7162 25.8699 56.7019 34.4847M39.3868 34.4846C45.3742 38.1652 50.907 38.0469 56.7019 34.4847M59.3925 49.0637H66.3224C66.5516 49.0637 66.7514 48.9079 66.8073 48.6857L68.6233 41.4726C68.6772 41.2583 68.5893 41.0371 68.3992 40.9246C66.7911 39.9724 59.467 35.6614 56.7019 34.4847M59.3925 49.0637C58.725 62.9839 68.738 61.6582 75.4134 83.5328" stroke="white" stroke-width="3"/>
</svg>
