<svg width="98" height="98" viewBox="0 0 98 98" fill="none" xmlns="http://www.w3.org/2000/svg">
<path d="M16.1814 95.7082C28.7504 95.7051 35.9831 95.6052 48.7246 95.6052C61.4665 95.6052 69.2319 95.7051 81.818 95.7082C82.1494 95.7083 82.4215 95.4391 82.4254 95.1077C82.4557 92.54 82.6427 90.8856 81.8661 88.3969C80.7534 84.7331 79.4445 83.4774 74.0672 82.6303C65.1309 81.4717 57.9058 81.0256 48.9995 80.9827C40.0933 81.0256 32.8681 81.4717 23.9318 82.6303C18.5545 83.4774 17.2456 84.7331 16.1329 88.3969C15.3563 90.8856 15.5433 92.54 15.5736 95.1077C15.5776 95.4391 15.85 95.7083 16.1814 95.7082Z" stroke="#2B2B2B" stroke-width="3"/>
<path d="M71.7386 82.3214L87.0393 41.7909C87.1082 41.6083 87.2777 41.4839 87.4717 41.4623C92.1824 40.9392 95.8539 36.2926 95.8539 31.4511C95.8539 26.2758 91.6584 22.0803 86.483 22.0803C81.3077 22.0803 77.1122 26.2758 77.1122 31.4511C77.1122 33.0936 77.8241 35.7323 78.6071 37.2285C78.7081 37.4216 78.6878 37.6584 78.5438 37.8221L67.9764 49.8341C67.6685 50.1842 67.0912 49.9594 67.1011 49.4932L67.7348 19.7115C67.7388 19.5224 67.8497 19.3525 68.0184 19.2668C71.0343 17.7339 73.0961 14.9989 73.0961 11.3708C73.0961 6.19547 68.9007 2 63.7253 2C58.5499 2 54.3545 6.19547 54.3545 11.3708C54.3545 13.8811 55.5863 16.1608 57.2143 17.8431C57.3471 17.9803 57.396 18.1792 57.3359 18.3604L49.4743 42.0682C49.3228 42.525 48.6766 42.525 48.5251 42.0682L40.6635 18.3604C40.6034 18.1792 40.6523 17.9803 40.7851 17.8431C42.4131 16.1608 43.6449 13.8811 43.6449 11.3708C43.6449 6.19547 39.4495 2 34.2741 2C29.0987 2 24.9033 6.19547 24.9033 11.3708C24.9033 14.9989 26.9651 17.7339 29.981 19.2668C30.1496 19.3525 30.2606 19.5224 30.2646 19.7115L30.8982 49.4932C30.9082 49.9594 30.3309 50.1842 30.0229 49.8341L19.4556 37.8221C19.3116 37.6584 19.2913 37.4216 19.3923 37.2285C20.1753 35.7323 20.8872 33.0936 20.8872 31.4511C20.8872 26.2758 16.6917 22.0803 11.5163 22.0803C6.34097 22.0803 2.14551 26.2758 2.14551 31.4511C2.14551 36.2926 5.81703 40.9392 10.5276 41.4623C10.7217 41.4839 10.8912 41.6083 10.9601 41.7909L26.2608 82.3214" stroke="#2B2B2B" stroke-width="3"/>
</svg>
