<svg width="95" height="96" viewBox="0 0 95 96" fill="none" xmlns="http://www.w3.org/2000/svg">
<path d="M16.1686 95.2676C28.5572 95.2649 35.6584 95.1651 48.1915 95.1651C60.7247 95.1651 68.3512 95.2649 80.7541 95.2676C81.0302 95.2677 81.2574 95.0435 81.2602 94.7673C81.2862 92.1558 81.4841 90.499 80.7124 87.9907C79.6206 84.3441 78.3362 83.0943 73.0596 82.2512C72.5168 82.1798 71.9804 82.1112 71.4496 82.0451C63.4065 81.0446 56.6597 80.6514 48.4612 80.6113C40.2627 80.6514 33.5158 81.0446 25.4727 82.0451C24.942 82.1112 24.4056 82.1798 23.8628 82.2512C18.5861 83.0943 17.3018 84.3441 16.2099 87.9907C15.4382 90.499 15.6362 92.1558 15.6622 94.7673C15.6649 95.0435 15.8925 95.2677 16.1686 95.2676Z" fill="#2B2B2B"/>
<path fill-rule="evenodd" clip-rule="evenodd" d="M53.7151 2.5C53.7151 2.22386 53.4912 2 53.2151 2H48.4605H43.706C43.4299 2 43.206 2.22386 43.206 2.5V9.49436C43.206 9.7705 42.9822 9.99436 42.706 9.99436H35.8243C35.5481 9.99436 35.3243 10.2182 35.3243 10.4944V21.4859C35.3243 21.762 35.5481 21.9859 35.8243 21.9859H42.5319C42.8674 21.9859 43.1077 22.3099 43.0103 22.631L40.7876 29.9582C40.6864 30.2917 40.2743 30.4152 39.9929 30.2096C23.5498 18.1928 10.4575 29.3224 5.20243 41.0985C5.1435 41.2305 5.14629 41.3807 5.20805 41.5114L22.6902 78.5199C22.7825 78.7152 22.9888 78.8293 23.2031 78.8028C31.1654 77.8193 40.3835 76.9162 48.4605 76.8768C56.5376 76.9162 65.7557 77.8193 73.718 78.8028C73.9323 78.8293 74.1386 78.7152 74.2309 78.5199L91.713 41.5114C91.7748 41.3807 91.7776 41.2305 91.7187 41.0985C86.4636 29.3224 73.3712 18.1928 56.9281 30.2096C56.6468 30.4152 56.2347 30.2917 56.1335 29.9582L53.9108 22.631C53.8133 22.3099 54.0537 21.9859 54.3892 21.9859H61.0968C61.373 21.9859 61.5968 21.762 61.5968 21.4859V10.4944C61.5968 10.2182 61.373 9.99436 61.0968 9.99436H54.2151C53.9389 9.99436 53.7151 9.7705 53.7151 9.49436V2.5Z" fill="#2B2B2B"/>
</svg>
