<svg width="95" height="95" viewBox="0 0 95 95" fill="none" xmlns="http://www.w3.org/2000/svg">
<path d="M14.5481 94.5812C26.9367 94.5786 34.0379 94.4809 46.571 94.4809C59.1042 94.4809 66.7307 94.5786 79.1336 94.5812C79.4098 94.5813 79.6369 94.3572 79.6398 94.0811C79.6662 91.5303 79.8626 89.9093 79.0919 87.457C78.0001 83.8869 76.7157 82.6633 71.4391 81.8379C62.6701 80.7089 55.5802 80.2742 46.8407 80.2324C38.1012 80.2742 31.0113 80.7089 22.2423 81.8379C16.9657 82.6633 15.6813 83.8869 14.5895 87.457C13.8188 89.9093 14.0151 91.5303 14.0416 94.0811C14.0445 94.3572 14.272 94.5813 14.5481 94.5812Z" fill="#2B2B2B"/>
<path d="M39.0638 47.677H29.6243C29.3951 47.677 29.1953 47.5213 29.1394 47.2991L27.3555 40.2137C27.3016 39.9994 27.3918 39.7769 27.5819 39.6644C28.7545 38.9701 32.9426 36.5043 36.1607 34.7854C36.3297 34.6951 36.535 34.7115 36.6913 34.8224C43.6838 39.7855 52.6936 39.7914 59.1667 34.8401C59.3244 34.7194 59.5379 34.6983 59.713 34.7919C62.9296 36.5105 67.1087 38.9711 68.2799 39.6645C68.47 39.777 68.5601 39.9995 68.5062 40.2137L66.7224 47.2992C66.6664 47.5214 66.4666 47.6771 66.2375 47.6771H59.4251L39.0638 47.677Z" fill="#2B2B2B"/>
<path d="M20.005 78.2104C45.6917 75.9807 51.5217 75.8395 74.322 78.1967C74.678 78.2335 74.964 77.884 74.8557 77.5429C69.051 59.2522 60.859 60.4983 59.4873 51.6756C59.4486 51.4264 59.2359 51.2316 58.9837 51.2316H39.156C38.9163 51.2316 38.7104 51.4079 38.6564 51.6414C36.6065 60.5038 25.3691 59.2279 19.4797 77.5569C19.3713 77.8942 19.6521 78.2411 20.005 78.2104Z" fill="#2B2B2B"/>
<ellipse cx="48.1545" cy="18.3909" rx="17.0772" ry="17.0772" fill="#2B2B2B"/>
</svg>
