<svg width="95" height="95" viewBox="0 0 95 95" fill="none" xmlns="http://www.w3.org/2000/svg">
<path d="M15.561 94.5811C27.9496 94.5784 35.0508 94.4786 47.5838 94.4786C60.1171 94.4786 67.7436 94.5784 80.1465 94.5811C80.4226 94.5811 80.6498 94.3569 80.6526 94.0808C80.6786 91.4693 80.8765 89.8125 80.1048 87.3042C79.139 84.0787 78.0227 82.7284 74.1261 81.8761C73.6174 81.7648 73.0613 81.662 72.452 81.5647C63.683 80.4115 56.5931 79.9675 47.8536 79.9248C39.1141 79.9675 32.0242 80.4115 23.2552 81.5647C22.6458 81.662 22.0897 81.7648 21.581 81.8761C17.6845 82.7284 16.5681 84.0787 15.6023 87.3042C14.8306 89.8125 15.0286 91.4693 15.0546 94.0808C15.0573 94.3569 15.2849 94.5811 15.561 94.5811Z" fill="#2B2B2B"/>
<path d="M38.6867 2.52218L37.9493 15.3856C37.9353 15.6309 37.745 15.8297 37.5005 15.8544L31.7934 16.4318C31.5333 16.4581 31.2967 16.2795 31.2509 16.022L29.0443 3.63815C29.0044 3.41434 28.8139 3.24487 28.5871 3.22912C19.4643 2.59534 16.2813 5.83129 15.8012 7.62785C15.7882 7.67649 15.7851 7.72557 15.7888 7.77578L17.0261 24.5619C17.0348 24.6788 17.0842 24.789 17.1658 24.8732L25.4828 33.4514C25.603 33.5754 25.7799 33.6282 25.9488 33.5921C33.8423 31.9 40.1736 31.2126 47.9754 31.1106C55.7772 31.2126 62.1084 31.9 70.002 33.5921C70.1709 33.6283 70.3478 33.5754 70.468 33.4514L78.7849 24.8732C78.8666 24.789 78.916 24.6788 78.9246 24.5619L80.162 7.77578C80.1657 7.72557 80.1625 7.67649 80.1495 7.62785C79.6694 5.83129 76.4864 2.59534 67.3636 3.22912C67.1369 3.24487 66.9463 3.41434 66.9064 3.63815L64.6999 16.022C64.654 16.2795 64.4175 16.4581 64.1573 16.4318L58.4503 15.8544C58.2058 15.8297 58.0155 15.6309 58.0014 15.3856L57.2638 2.51804C57.2503 2.28221 57.0716 2.08758 56.8379 2.05276C50.1763 1.05988 46.1561 1.07382 39.1178 2.05602C38.882 2.08892 38.7003 2.28448 38.6867 2.52218Z" fill="#2B2B2B"/>
<path d="M25.5466 37.4062C33.5139 35.4528 39.8659 34.6972 47.8538 34.6235C55.8417 34.6972 62.1936 35.4528 70.161 37.4062C70.3682 37.4569 70.5211 37.6343 70.5401 37.8467L74.0657 77.2477C74.0958 77.5841 73.7906 77.8534 73.4589 77.7902C73.1405 77.7295 72.8053 77.6713 72.4523 77.6149C63.6832 76.4617 56.5934 76.0177 47.8538 75.975C39.1143 76.0177 32.0245 76.4617 23.2554 77.6149C22.9024 77.6713 22.5672 77.7295 22.2488 77.7902C21.9171 77.8534 21.6119 77.5841 21.642 77.2477L25.1675 37.8467C25.1865 37.6343 25.3394 37.4569 25.5466 37.4062Z" fill="#2B2B2B"/>
</svg>
