<svg width="99" height="99" viewBox="0 0 99 99" fill="none" xmlns="http://www.w3.org/2000/svg">
<path d="M16.4568 96.7901C29.1752 96.7869 36.4917 96.6859 49.3827 96.6859C62.274 96.6859 70.1295 96.7869 82.8651 96.7901C83.1965 96.7901 83.4686 96.521 83.4724 96.1896C83.5029 93.5883 83.6931 91.9141 82.9068 89.3944C81.7813 85.6883 80.4573 84.418 75.0179 83.5612C65.9784 82.3892 58.6698 81.9379 49.6608 81.8945C40.6517 81.9379 33.3431 82.3892 24.3036 83.5612C18.8643 84.418 17.5403 85.6883 16.4148 89.3944C15.6285 91.9141 15.8187 93.5883 15.8491 96.1896C15.853 96.521 16.1255 96.7901 16.4568 96.7901Z" stroke="white" stroke-width="3"/>
<path d="M72.6616 83.2487L88.1403 42.2469C88.2092 42.0642 88.3787 41.9398 88.5727 41.9183C93.3395 41.3912 97.0553 36.6897 97.0553 31.7911C97.0553 26.556 92.8114 22.3121 87.5763 22.3121C82.3412 22.3121 78.0973 26.556 78.0973 31.7911C78.0973 33.4539 78.8185 36.1261 79.6113 37.6389C79.7125 37.8319 79.6922 38.0688 79.5482 38.2324L68.8456 50.3982C68.5376 50.7483 67.9604 50.5235 67.9703 50.0573L68.6117 19.9125C68.6157 19.7233 68.7267 19.5534 68.8953 19.4678C71.9477 17.9175 74.0349 15.1503 74.0349 11.479C74.0349 6.2439 69.791 2 64.5558 2C59.3207 2 55.0768 6.2439 55.0768 11.479C55.0768 14.0195 56.3241 16.3266 57.9722 18.0286C58.105 18.1657 58.1539 18.3647 58.0938 18.5459L50.1348 42.5473C49.9833 43.0041 49.3371 43.0041 49.1856 42.5473L41.2266 18.5459C41.1665 18.3647 41.2155 18.1657 41.3483 18.0286C42.9964 16.3266 44.2436 14.0195 44.2436 11.479C44.2436 6.2439 39.9997 2 34.7646 2C29.5295 2 25.2856 6.2439 25.2856 11.479C25.2856 15.1503 27.3727 17.9175 30.4251 19.4678C30.5938 19.5534 30.7047 19.7233 30.7088 19.9125L31.3501 50.0573C31.3601 50.5235 30.7828 50.7483 30.4748 50.3982L19.7723 38.2324C19.6283 38.0688 19.608 37.8319 19.7091 37.6389C20.5019 36.1261 21.2232 33.4539 21.2232 31.7911C21.2232 26.556 16.9793 22.3121 11.7442 22.3121C6.50904 22.3121 2.26514 26.556 2.26514 31.7911C2.26514 36.6897 5.98095 41.3912 10.7477 41.9183C10.9417 41.9398 11.1113 42.0642 11.1802 42.2469L26.6588 83.2487" stroke="white" stroke-width="3"/>
</svg>
