<svg width="95" height="99" viewBox="0 0 95 99" fill="none" xmlns="http://www.w3.org/2000/svg">
<path d="M15.0039 96.7901C27.5998 96.7874 34.8174 96.6859 47.5578 96.6859C60.2984 96.6859 68.05 96.7874 80.6602 96.7901C80.9363 96.7901 81.1635 96.5659 81.1663 96.2897C81.1924 93.6309 81.3948 91.9462 80.6096 89.3944C79.5 85.6883 78.1946 84.418 72.8319 83.5612C63.9197 82.3892 56.7141 81.9379 47.8319 81.8945C38.9497 81.9379 31.7441 82.3892 22.8319 83.5612C17.4691 84.418 16.1638 85.6883 15.0541 89.3944C14.269 91.9462 14.4714 93.6309 14.4975 96.2897C14.5002 96.5659 14.7278 96.7901 15.0039 96.7901Z" stroke="white" stroke-width="3"/>
<path d="M48.7536 32.2749C40.4522 32.3416 33.857 33.0285 25.5651 34.8063C25.3963 34.8425 25.2194 34.7896 25.0992 34.6656L16.6412 25.942C16.5596 25.8578 16.5101 25.7476 16.5015 25.6307L15.2437 8.56632C15.24 8.51611 15.2431 8.46705 15.2561 8.4184C15.743 6.59234 18.9788 3.30092 28.2573 3.9471C28.4841 3.9629 28.6747 4.13236 28.7146 4.35617L30.9596 16.9559C31.0055 17.2133 31.242 17.3919 31.5022 17.3656L37.3168 16.7774C37.5613 16.7527 37.7516 16.5539 37.7657 16.3086L38.5159 3.22151C38.5295 2.98381 38.7112 2.78825 38.947 2.75533C46.1067 1.75588 50.1932 1.74169 56.9696 2.75207C57.2032 2.78691 57.382 2.98154 57.3955 3.21737L58.1459 16.3086C58.16 16.5539 58.3503 16.7527 58.5948 16.7774L64.4094 17.3656C64.6696 17.3919 64.9061 17.2133 64.952 16.9559L67.197 4.35617C67.2369 4.13236 67.4275 3.9629 67.6543 3.9471C76.9328 3.30092 80.1686 6.59234 80.6555 8.4184C80.6685 8.46705 80.6717 8.51611 80.6679 8.56632L79.4101 25.6307C79.4015 25.7476 79.352 25.8578 79.2704 25.942L70.8124 34.6656C70.6922 34.7896 70.5153 34.8425 70.3465 34.8063C62.0546 33.0285 55.4594 32.3416 47.158 32.2749" stroke="white" stroke-width="3"/>
<path d="M21.1305 83.9256L24.7805 35.067C24.7966 34.8517 24.9505 34.6705 25.1602 34.6191C33.2578 32.6338 39.7135 31.8659 47.8319 31.791C55.9503 31.8659 62.406 32.6338 70.5036 34.6191C70.7133 34.6705 70.8672 34.8517 70.8833 35.067L74.5334 83.9256" stroke="white" stroke-width="3"/>
</svg>
