<svg width="95" height="95" viewBox="0 0 95 95" fill="none" xmlns="http://www.w3.org/2000/svg">
<path d="M15.7335 94.5811C28.0603 94.5778 35.157 94.4771 47.6562 94.4771C60.1557 94.4771 67.7749 94.5779 80.1188 94.5811C80.4502 94.5811 80.7222 94.312 80.7259 93.9806C80.7555 91.3846 80.9399 89.7135 80.1772 87.1988C79.0854 83.4993 77.801 82.2313 72.5244 81.3761C70.8389 81.1512 69.2154 80.9529 67.6304 80.779C60.9689 80.0481 54.9856 79.7474 47.926 79.7124C42.2823 79.7404 37.3266 79.9381 32.1624 80.3898C29.3295 80.6375 26.4339 80.9616 23.3275 81.3761C18.0509 82.2313 16.7666 83.4993 15.6747 87.1988C14.9121 89.7135 15.0964 91.3846 15.126 93.9806C15.1297 94.312 15.4021 94.5811 15.7335 94.5811Z" fill="#2B2B2B"/>
<path d="M39.9685 1.66427L45.4198 5.76756C45.5087 5.83453 45.6224 5.86973 45.7337 5.8682C81.8238 5.37216 84.1399 38.436 81.1426 55.1482C81.1315 55.2106 81.1088 55.2679 81.0752 55.3216L67.6703 76.7808C67.5685 76.9437 67.382 77.0338 67.1911 77.0131C60.6546 76.3069 54.7485 76.0151 47.7995 75.9806C42.2305 76.0082 37.3313 76.2011 32.2407 76.6402C32.1096 76.6515 31.9791 76.6108 31.8778 76.5269L23.8854 69.8994C23.7208 69.763 23.6613 69.5354 23.7398 69.3365C30.6859 51.731 54.3463 44.1036 48.455 29.2832C48.2768 28.835 47.6495 28.923 47.5594 29.3968C45.4556 40.4733 41.7324 44.3016 30.5835 45.3513C30.4799 45.3611 30.3789 45.4028 30.3 45.4707L25.151 49.9001C25.1329 49.9157 25.1153 49.9333 25.0995 49.9513C20.9406 54.6852 15.9643 51.0635 13.8809 48.5387C13.8088 48.4514 13.772 48.3428 13.772 48.2296V40.9472C13.772 40.8569 13.7965 40.7682 13.8428 40.6907L22.8253 25.6656C22.844 25.6344 22.8592 25.6012 22.8707 25.5667L24.3299 21.1733C24.3543 21.0997 24.3955 21.0329 24.4502 20.978L34.1535 11.2395C34.1878 11.2051 34.2169 11.1658 34.2399 11.123L39.2272 1.82736C39.3721 1.5573 39.7236 1.47996 39.9685 1.66427Z" fill="#2B2B2B"/>
</svg>
